<?xml version="1.0" encoding="UTF-8" standalone="no"?>
<!-- Created with Inkscape (http://www.inkscape.org/) -->

<svg
   width="272mm"
   height="272mm"
   viewBox="0 0 272 272"
   version="1.1"
   id="svg5"
   inkscape:version="1.1.2 (0a00cf5339, 2022-02-04)"
   sodipodi:docname="williamv4org.svg"
   inkscape:export-filename="/home/william/Pictures/williamv4org.png"
   inkscape:export-xdpi="96"
   inkscape:export-ydpi="96"
   xmlns:inkscape="http://www.inkscape.org/namespaces/inkscape"
   xmlns:sodipodi="http://sodipodi.sourceforge.net/DTD/sodipodi-0.dtd"
   xmlns="http://www.w3.org/2000/svg"
   xmlns:svg="http://www.w3.org/2000/svg">
  <sodipodi:namedview
     id="namedview7"
     pagecolor="#505050"
     bordercolor="#eeeeee"
     borderopacity="1"
     inkscape:pageshadow="0"
     inkscape:pageopacity="0"
     inkscape:pagecheckerboard="0"
     inkscape:document-units="mm"
     showgrid="false"
     fit-margin-top="8"
     lock-margins="true"
     fit-margin-left="8"
     fit-margin-right="8"
     fit-margin-bottom="8"
     inkscape:zoom="0.44364478"
     inkscape:cx="508.28954"
     inkscape:cy="490.25709"
     inkscape:window-width="1366"
     inkscape:window-height="681"
     inkscape:window-x="0"
     inkscape:window-y="25"
     inkscape:window-maximized="1"
     inkscape:current-layer="layer1" />
  <defs
     id="defs2">
    <rect
       x="425.8894"
       y="481.26349"
       width="230.5748"
       height="318.64832"
       id="rect18100" />
    <rect
       x="639.65326"
       y="327.77792"
       width="256.85098"
       height="186.26878"
       id="rect3688" />
  </defs>
  <g
     inkscape:label="Layer 1"
     inkscape:groupmode="layer"
     id="layer1"
     transform="translate(16,16)">
    <circle
       style="fill:none;stroke:#35cca3;stroke-width:12.8882;stroke-miterlimit:4;stroke-dasharray:none;stroke-opacity:1"
       id="path861-8"
       cx="120"
       cy="120"
       r="121.5559" />
    <circle
       style="fill:none;fill-opacity:1;stroke:#35cca3;stroke-width:7.13489;stroke-miterlimit:4;stroke-dasharray:none;stroke-opacity:1"
       id="path5510"
       cx="70.33429"
       cy="193.11858"
       r="17.432556" />
    <ellipse
       style="fill:none;fill-opacity:1;stroke:#35cca3;stroke-width:12.2312;stroke-miterlimit:4;stroke-dasharray:none;stroke-opacity:1"
       id="path5510-9"
       cx="56.103889"
       cy="87.170471"
       rx="29.884001"
       ry="29.884396" />
    <circle
       style="fill:none;fill-opacity:1;stroke:#35cca3;stroke-width:5.43611;stroke-miterlimit:4;stroke-dasharray:none;stroke-opacity:1"
       id="path5510-0"
       cx="212.36696"
       cy="121.68151"
       r="13.281947" />
    <text
       xml:space="preserve"
       transform="matrix(0.26458333,0,0,0.26458333,-8.0000005,-8.0000005)"
       id="text3686"
       style="font-style:normal;font-weight:normal;font-size:40px;line-height:1.25;font-family:sans-serif;white-space:pre;shape-inside:url(#rect3688);fill:#000000;fill-opacity:1;stroke:none" />
    <text
       xml:space="preserve"
       style="font-style:normal;font-weight:normal;font-size:10.5833px;line-height:1.25;font-family:sans-serif;fill:#35cca3;fill-opacity:1;stroke:none;stroke-width:0.264583"
       x="128.50458"
       y="-7.000103"
       id="text6378"
       transform="rotate(25.943042)"><tspan
         sodipodi:role="line"
         id="tspan6376"
         style="font-style:normal;font-variant:normal;font-weight:normal;font-stretch:normal;font-size:45.1556px;font-family:Comfortaa;-inkscape-font-specification:'Comfortaa, Normal';font-variant-ligatures:normal;font-variant-caps:normal;font-variant-numeric:normal;font-variant-east-asian:normal;fill:#35cca3;fill-opacity:1;stroke-width:0.264583"
         x="128.50458"
         y="-7.000103">WZ</tspan></text>
    <text
       xml:space="preserve"
       transform="matrix(0.26458333,0,0,0.26458333,-8.0000005,-8.0000005)"
       id="text18098"
       style="font-style:normal;font-weight:normal;font-size:40px;line-height:1.25;font-family:sans-serif;white-space:pre;shape-inside:url(#rect18100);fill:#000000;fill-opacity:1;stroke:none" />
    <path
       id="path861"
       style="fill:#35cca3;fill-opacity:1;stroke:#35cca3;stroke-width:1;stroke-miterlimit:4;stroke-dasharray:none;stroke-opacity:1"
       d="m 133.86067,83.22432 a 49.26565,49.265617 0 0 0 -49.265764,49.2652 49.26565,49.265617 0 0 0 49.265764,49.26573 49.26565,49.265617 0 0 0 49.26524,-49.26573 49.26565,49.265617 0 0 0 -49.26524,-49.2652 z m 9.06611,13.67668 c 0.96333,0 1.74611,0.36116 2.34819,1.08365 0.66228,0.66229 0.99322,1.50552 0.99322,2.52905 v 43.80094 h 7.13444 c 0.96332,0 1.77634,0.24078 2.43862,0.72244 0.66228,0.48166 0.99322,1.32438 0.99322,2.52853 0,0.7827 -0.33094,1.50503 -0.99322,2.16731 -0.66228,0.60207 -1.4753,0.9033 -2.43862,0.9033 h -7.13444 v 13.36611 c 0,1.02353 -0.33094,1.86625 -0.99322,2.52853 -0.66229,0.66228 -1.50552,0.99374 -2.52906,0.99374 -0.90311,0 -1.68538,-0.33146 -2.34766,-0.99374 -0.66228,-0.66228 -0.99374,-1.505 -0.99374,-2.52853 v -13.36611 h -32.33137 c -0.96332,0 -1.77582,-0.30123 -2.4381,-0.9033 -0.60208,-0.66228 -0.96376,-1.41484 -1.08418,-2.25775 -0.0602,-0.8429 0.18109,-1.62517 0.72296,-2.34766 l 35.76321,-46.78112 c 0.30104,-0.42145 0.66221,-0.75291 1.08366,-0.99374 0.48166,-0.30104 1.0836,-0.45165 1.80609,-0.45165 z m -3.52227,12.92169 -26.4599,34.49195 h 26.4599 z" />
  </g>
</svg>
