<?xml version="1.0" encoding="UTF-8" standalone="no"?>
<!-- Created with Inkscape (http://www.inkscape.org/) -->

<svg
   width="64mm"
   height="64mm"
   viewBox="0 0 64 64"
   version="1.1"
   id="svg5"
   inkscape:version="1.1.1 (3bf5ae0d25, 2021-09-20, custom)"
   sodipodi:docname="William.exe_v4.0.svg"
   inkscape:export-filename="/home/william/Pictures/William.exe_v4.0.png"
   inkscape:export-xdpi="96"
   inkscape:export-ydpi="96"
   xmlns:inkscape="http://www.inkscape.org/namespaces/inkscape"
   xmlns:sodipodi="http://sodipodi.sourceforge.net/DTD/sodipodi-0.dtd"
   xmlns="http://www.w3.org/2000/svg"
   xmlns:svg="http://www.w3.org/2000/svg">
  <sodipodi:namedview
     id="namedview7"
     pagecolor="#505050"
     bordercolor="#ffffff"
     borderopacity="1"
     inkscape:pageshadow="0"
     inkscape:pageopacity="0"
     inkscape:pagecheckerboard="1"
     inkscape:document-units="mm"
     showgrid="false"
     inkscape:zoom="0.7810797"
     inkscape:cx="227.88968"
     inkscape:cy="90.259675"
     inkscape:window-width="1368"
     inkscape:window-height="703"
     inkscape:window-x="0"
     inkscape:window-y="0"
     inkscape:window-maximized="1"
     inkscape:current-layer="layer1" />
  <defs
     id="defs2">
    <rect
       x="330.66507"
       y="301.05475"
       width="144.27603"
       height="169.70415"
       id="rect108006" />
    <rect
       x="333.80136"
       y="332.19269"
       width="95.791222"
       height="132.86302"
       id="rect64110" />
    <rect
       x="324.2001"
       y="244.91937"
       width="127.58694"
       height="60.240368"
       id="rect16225" />
  </defs>
  <g
     inkscape:label="Layer 1"
     inkscape:groupmode="layer"
     id="layer1">
    <path
       id="path31"
       style="fill:#c5e1ec;fill-opacity:1;fill-rule:evenodd;stroke-width:0.169095"
       d="M 32.000335,0 C 14.326944,-1.6321861e-4 -2.0209786e-4,14.326981 0,32.000332 1.6450214e-4,49.673422 14.327203,64.000164 32.000335,64 49.673207,63.999792 63.999836,49.673162 64,32.000332 64.0002,14.327242 49.673464,2.0742139e-4 32.000335,0 Z m -6.785964,7.8202818 c 0.07284,0 0.139334,0.021999 0.200038,0.067072 0.06677,0.038656 0.115496,0.1129665 0.145852,0.2224701 l 1.578241,5.8313411 1.490595,-5.6666494 c 0.01819,-0.070873 0.05771,-0.1295548 0.118422,-0.1746542 0.06677,-0.045093 0.139856,-0.067071 0.218773,-0.067071 0.07284,0 0.142633,0.021999 0.209407,0.067071 0.06677,0.038642 0.108917,0.1002152 0.127121,0.1839534 l 1.499294,5.6586762 1.588276,-5.8711837 c 0.0425,-0.1674869 0.15769,-0.2510244 0.345884,-0.2510244 0.127487,0 0.215034,0.054532 0.263602,0.1640287 0.04859,0.1030739 0.05516,0.2290324 0.01873,0.3771994 L 31.160727,15.0482 c -0.03036,0.10307 -0.07907,0.183087 -0.145852,0.241061 -0.0607,0.05153 -0.133113,0.07768 -0.218103,0.07768 -0.08497,0 -0.16136,-0.02901 -0.22814,-0.08701 -0.0607,-0.05798 -0.102826,-0.13229 -0.127107,-0.222473 L 28.966293,9.3456642 27.500452,15.048178 c -0.03036,0.09662 -0.07907,0.173784 -0.145846,0.231764 -0.0607,0.05799 -0.133785,0.08701 -0.218773,0.08701 -0.08497,0 -0.160695,-0.029 -0.227474,-0.08701 -0.0607,-0.05799 -0.103492,-0.132288 -0.12778,-0.222471 L 24.913986,8.3615101 c -0.0425,-0.1546105 -0.03658,-0.2840905 0.01806,-0.3871618 0.06072,-0.1030774 0.154841,-0.1540665 0.282332,-0.1540665 z m 3.751915,1.5254034 0.109048,-0.4236855 h -0.218097 z m 1.835817,4.5968058 -0.105717,0.390485 h 0.209403 z m -3.663601,-0.0014 -0.102363,0.39181 h 0.208735 z m 6.954554,-6.1208836 h 4.935427 c 0.109273,0 0.194196,0.035406 0.254904,0.1062526 0.0607,0.070873 0.09428,0.154386 0.100352,0.2510241 0.01217,0.090186 -0.0088,0.1673439 -0.06356,0.231766 l -4.726023,6.2815949 h 4.434323 c 0.09714,0 0.179426,0.03186 0.246209,0.09629 0.07284,0.05799 0.109048,0.13866 0.109048,0.241728 0,0.09662 -0.03621,0.177306 -0.109048,0.241729 -0.06678,0.06441 -0.149072,0.09629 -0.246209,0.09629 h -4.980921 c -0.103207,0 -0.18812,-0.0354 -0.2549,-0.106258 -0.06069,-0.07083 -0.09428,-0.151532 -0.100364,-0.241729 -0.0061,-0.09661 0.0183,-0.183681 0.07292,-0.260986 l 4.707958,-6.2616708 h -4.389499 c -0.109286,0 -0.194191,-0.029005 -0.254901,-0.086996 -0.06069,-0.057981 -0.09099,-0.1379975 -0.09099,-0.2410654 0,-0.096623 0.03356,-0.177306 0.100352,-0.2417249 0.06677,-0.070875 0.151694,-0.1062525 0.254899,-0.1062525 z m 4.223581,9.9201226 c 0.455868,0 0.826342,0.177025 1.111259,0.531269 0.31341,0.324722 0.470329,0.738004 0.470329,1.239849 v 21.475891 h 3.375921 c 0.455866,0 0.840665,0.118459 1.154074,0.354622 0.313407,0.236161 0.470325,0.649444 0.470325,1.239847 0,0.383765 -0.156918,0.737818 -0.470325,1.06254 -0.313409,0.295204 -0.698208,0.442946 -1.154074,0.442946 h -3.375921 v 6.553207 c 0,0.501844 -0.156919,0.915123 -0.470329,1.239847 -0.31341,0.324726 -0.711866,0.487439 -1.196227,0.487439 -0.427372,0 -0.797845,-0.162713 -1.111255,-0.487439 -0.313407,-0.324724 -0.470325,-0.738003 -0.470325,-1.239847 V 44.087335 H 21.350058 c -0.455864,0 -0.840665,-0.147742 -1.154072,-0.442948 -0.284919,-0.324721 -0.455492,-0.693747 -0.512477,-1.107032 -0.02848,-0.413284 0.08545,-0.797282 0.341872,-1.151522 l 16.92376,-22.936884 c 0.142462,-0.206642 0.313705,-0.369357 0.513147,-0.487438 0.227935,-0.147602 0.512451,-0.22114 0.854349,-0.22114 z m -1.666548,6.335383 z m 0,0 -12.520884,16.911623 H 36.650089 Z M 24.129205,40.987327 Z"
       sodipodi:nodetypes="cccccscccccsccccsccccscccccsccccssccccccccccccssscccscscssccccssscsscscssscscssssscscccccscccccccccccc" />
    <text
       xml:space="preserve"
       transform="scale(0.26458333)"
       id="text64108"
       style="font-style:normal;font-weight:normal;font-size:40px;line-height:1.25;font-family:sans-serif;white-space:pre;shape-inside:url(#rect64110);fill:#000000;fill-opacity:1;stroke:none" />
    <text
       xml:space="preserve"
       transform="scale(0.26458333)"
       id="text108004"
       style="font-style:normal;font-variant:normal;font-weight:normal;font-stretch:normal;font-size:170.667px;line-height:1.25;font-family:sans-serif;-inkscape-font-specification:'sans-serif, Normal';font-variant-ligatures:normal;font-variant-caps:normal;font-variant-numeric:normal;font-variant-east-asian:normal;white-space:pre;shape-inside:url(#rect108006);fill:#000000;fill-opacity:1;stroke:none" />
    <text
       xml:space="preserve"
       style="font-style:normal;font-variant:normal;font-weight:normal;font-stretch:normal;font-size:45.1556px;line-height:1.25;font-family:Comfortaa;-inkscape-font-specification:'Comfortaa, Normal';font-variant-ligatures:normal;font-variant-caps:normal;font-variant-numeric:normal;font-variant-east-asian:normal;fill:#000000;fill-opacity:1;stroke:none;stroke-width:0.264583"
       x="92.915596"
       y="94.954491"
       id="text111906"><tspan
         sodipodi:role="line"
         id="tspan111930"
         x="92.915596"
         y="94.954491" /></text>
    <rect
       style="fill:#000000;fill-opacity:0;stroke-width:0.264583"
       id="rect131015"
       width="1.6438828"
       height="1.8968639"
       x="77.881744"
       y="66.621315" />
    <rect
       style="fill:#000000;fill-opacity:0;stroke-width:0.264583"
       id="rect131017"
       width="1.6438828"
       height="1.8968658"
       x="77.881744"
       y="66.621315" />
  </g>
</svg>
